<svg width="24" height="24" fill="none" xmlns="http://www.w3.org/2000/svg"><path d="m11.994 18.987-.133-.066a21.973 21.973 0 0 1-3.803-2.455C5.95 14.76 4 12.421 4 9.67c0-1.223.432-2.399 1.152-3.264C5.87 5.545 6.863 5 8.003 5c1.353 0 2.99.5 3.99 2 1-1.5 2.651-2 4.004-2 1.14 0 2.133.545 2.85 1.407C19.569 7.272 20 8.449 20 9.67c0 2.624-1.945 4.96-4.06 6.704a23.583 23.583 0 0 1-3.946 2.612z" fill="#000"/><path d="M12.12 19.049h.001m-.127-.062-.133-.066a21.973 21.973 0 0 1-3.803-2.455C5.95 14.76 4 12.421 4 9.67c0-1.223.432-2.399 1.152-3.264C5.87 5.545 6.863 5 8.003 5c1.353 0 2.99.5 3.99 2 1-1.5 2.651-2 4.004-2 1.14 0 2.133.545 2.85 1.407C19.569 7.272 20 8.449 20 9.67c0 2.624-1.945 4.96-4.06 6.704a23.583 23.583 0 0 1-3.946 2.612z" stroke="#000" stroke-width="1.5"/></svg>