<svg width="32" height="32" viewBox="0 0 32 32" fill="none" xmlns="http://www.w3.org/2000/svg">
<g clip-path="url(#clip0_36_75)">
<rect width="32" height="32" rx="2" fill="#3300FF"/>
<path d="M15.08 21.5H11.58V19.75H8.08V18H6.33V19.75H2.83V21.5H1.08V19.75H2.83V18H4.58C4.58 15.6667 4.58 14.5 4.58 14.5H6.33C6.33 12.1667 6.33 11 6.33 11H8.08C8.08 8.66667 8.08 7.5 8.08 7.5H9.83C9.83 5.16667 9.83 4 9.83 4H13.33V19.75H15.08V21.5ZM8.08 18H9.83C9.83 15.6667 9.83 14.5 9.83 14.5H8.08C8.08 16.8333 8.08 18 8.08 18ZM15.43 26.75H13.68V25H15.43V23.25H18.93V25H17.18V26.75H20.68V28.5H15.43V26.75ZM20.68 26.75V25H22.43V23.25H18.93V21.5H17.18V19.75H15.43V18H13.68V16.25H15.43V14.5H17.18C17.18 12.1667 17.18 11 17.18 11H20.68V9.25H27.68C27.68 16.25 27.68 19.75 27.68 19.75H25.93V25H24.18V26.75H20.68ZM18.93 19.75H22.43V18H24.18C24.18 13.3333 24.18 11 24.18 11H20.68C20.68 13.3333 20.68 14.5 20.68 14.5H18.93V19.75ZM28.17 18H31.67C31.67 20.3333 31.67 21.5 31.67 21.5H28.17C28.17 19.1667 28.17 18 28.17 18Z" fill="white"/>
</g>
<defs>
<clipPath id="clip0_36_75">
<rect width="32" height="32" fill="white"/>
</clipPath>
</defs>
</svg>
