<svg width="167" height="34" viewBox="0 0 167 34" fill="none" xmlns="http://www.w3.org/2000/svg">
<path d="M14.2 23H12.2V25H4.2V23H2.2V17H0.200001V15H2.2V9H4.2V7H6.2V5H12.2V7H14.2C14.2 9.66667 14.2 11 14.2 11H12.2V13H10.2V15H6.2C6.2 20.3333 6.2 23 6.2 23H10.2V21H14.2V23ZM6.2 13H8.2V11H10.2C10.2 8.33333 10.2 7 10.2 7H8.2V9H6.2C6.2 11.6667 6.2 13 6.2 13ZM19.4 23H17.4V21H15.4V11H17.4C17.4 8.33333 17.4 7 17.4 7H19.4V5H25.4V7H27.4V9H29.4C29.4 17 29.4 21 29.4 21H27.4V23H25.4V25H19.4V23ZM21.4 23H23.4V21H25.4C25.4 13 25.4 9 25.4 9H23.4V7H21.4C21.4 9.66667 21.4 11 21.4 11H23.4C23.4 13.6667 23.4 15 23.4 15H21.4V13H19.4V11H17.4V13H19.4C19.4 18.3333 19.4 21 19.4 21H21.4V23ZM36.6 23H34.6V25H30.6V23H32.6V9H30.6V7H32.6V5H42.6V7H44.6C44.6 17.6667 44.6 23 44.6 23H42.6V25H36.6V23ZM38.6 23H40.6C40.6 12.3333 40.6 7 40.6 7H38.6V9H36.6C36.6 17 36.6 21 36.6 21H38.6V23ZM61.8 21H59.8V23H57.8V25H49.8V23H47.8V21H45.8V19H47.8V17H49.8V11H53.8V17H51.8V23H55.8V21H59.8V19H61.8V21ZM53.8 5H57.8C57.8 7.66667 57.8 9 57.8 9H53.8C53.8 6.33333 53.8 5 53.8 5Z" fill="#2928FF"/>
<path d="M84 29H68V27H84V29Z" fill="#2928FF"/>
<path d="M106.1 25H102.1V23H98.1V21H96.1V23H92.1V25H90.1V23H92.1V21H94.1C94.1 18.3333 94.1 17 94.1 17H96.1C96.1 14.3333 96.1 13 96.1 13H98.1C98.1 10.3333 98.1 9 98.1 9H100.1C100.1 6.33333 100.1 5 100.1 5H104.1V23H106.1V25ZM98.1 21H100.1C100.1 18.3333 100.1 17 100.1 17H98.1C98.1 19.6667 98.1 21 98.1 21ZM107.3 31H105.3V29H107.3V27H111.3V29H109.3V31H113.3V33H107.3V31ZM113.3 31V29H115.3V27H111.3V25H109.3V23H107.3V21H105.3V19H107.3V17H109.3C109.3 14.3333 109.3 13 109.3 13H113.3V11H121.3C121.3 19 121.3 23 121.3 23H119.3V29H117.3V31H113.3ZM111.3 23H115.3V21H117.3C117.3 15.6667 117.3 13 117.3 13H113.3C113.3 15.6667 113.3 17 113.3 17H111.3V23ZM136.5 21H134.5V23H132.5V25H124.5V23H122.5V21H120.5V19H122.5V17H124.5V11H128.5V17H126.5V23H130.5V21H134.5V19H136.5V21ZM128.5 5H132.5C132.5 7.66667 132.5 9 132.5 9H128.5C128.5 6.33333 128.5 5 128.5 5ZM151.7 21H149.7V23H145.7V25H139.7V23H137.7V21H135.7V19H137.7C137.7 16.3333 137.7 15 137.7 15H139.7V13H137.7V11H139.7C139.7 8.33333 139.7 7 139.7 7H143.7C143.7 9.66667 143.7 11 143.7 11H145.7V13H143.7V15H141.7C141.7 20.3333 141.7 23 141.7 23H145.7V21H149.7V19H151.7V21ZM156.9 21H160.9C160.9 23.6667 160.9 25 160.9 25H156.9C156.9 22.3333 156.9 21 156.9 21Z" fill="black"/>
</svg>
