<svg width="152" height="34" fill="none" xmlns="http://www.w3.org/2000/svg"><path fill-rule="evenodd" clip-rule="evenodd" d="M14 28c7.732 0 14-6.268 14-14S21.732 0 14 0 0 6.268 0 14s6.268 14 14 14zm0-10a4 4 0 1 0 0-8 4 4 0 0 0 0 8z" fill="#326CF9"/><path d="M32 20V0h20v10H42v10H32zM56 10V0h27v10L69 24h14v10H56V24l13.5-14H56zM87 20V0h10v20H87zM101 34V10h10v14h17v10h-27z" fill="#326CF9"/><path d="M120 22h-10V12h10v10z" fill="#326CF9"/><path d="M101 0v24h10V10h17V0h-27zM152 10h-20V0h20v10z" fill="#326CF9"/></svg>